<mxfile host="app.diagrams.net" agent="Mozilla/5.0 (Windows NT 10.0; Win64; x64) AppleWebKit/537.36 (KHTML, like Gecko) Chrome/138.0.0.0 Safari/537.36 OPR/122.0.0.0" version="28.2.5">
  <diagram name="Page-1" id="O3qzyGsnW6C1aTyrbRx5">
    <mxGraphModel dx="1009" dy="613" grid="1" gridSize="10" guides="1" tooltips="1" connect="1" arrows="1" fold="1" page="1" pageScale="1" pageWidth="850" pageHeight="1100" math="0" shadow="0">
      <root>
        <mxCell id="0" />
        <mxCell id="1" parent="0" />
        <mxCell id="4gRq2dZgkaTbH2mpH-9e-1" value="Customer" style="shape=umlActor;verticalLabelPosition=bottom;verticalAlign=top;html=1;" vertex="1" parent="1">
          <mxGeometry x="80" y="150" width="30" height="60" as="geometry" />
        </mxCell>
        <mxCell id="4gRq2dZgkaTbH2mpH-9e-2" value="Guest" style="shape=umlActor;verticalLabelPosition=bottom;verticalAlign=top;html=1;" vertex="1" parent="1">
          <mxGeometry x="690" y="150" width="30" height="60" as="geometry" />
        </mxCell>
        <mxCell id="4gRq2dZgkaTbH2mpH-9e-3" value="&lt;p style=&quot;margin:0px;margin-top:4px;text-align:center;&quot;&gt;&lt;b&gt;System&lt;/b&gt;&lt;/p&gt;" style="verticalAlign=top;align=left;overflow=fill;html=1;whiteSpace=wrap;" vertex="1" parent="1">
          <mxGeometry x="150" y="130" width="520" height="430" as="geometry" />
        </mxCell>
        <mxCell id="4gRq2dZgkaTbH2mpH-9e-4" value="Online shopping system" style="text;align=center;fontStyle=1;verticalAlign=middle;spacingLeft=3;spacingRight=3;strokeColor=none;rotatable=0;points=[[0,0.5],[1,0.5]];portConstraint=eastwest;html=1;" vertex="1" parent="1">
          <mxGeometry x="372.5" y="90" width="80" height="26" as="geometry" />
        </mxCell>
        <mxCell id="4gRq2dZgkaTbH2mpH-9e-5" value="Create an account" style="ellipse;whiteSpace=wrap;html=1;" vertex="1" parent="1">
          <mxGeometry x="200" y="160" width="120" height="50" as="geometry" />
        </mxCell>
        <mxCell id="4gRq2dZgkaTbH2mpH-9e-7" value="Use as guest" style="ellipse;whiteSpace=wrap;html=1;" vertex="1" parent="1">
          <mxGeometry x="480" y="160" width="120" height="50" as="geometry" />
        </mxCell>
        <mxCell id="4gRq2dZgkaTbH2mpH-9e-8" value="Sign In" style="ellipse;whiteSpace=wrap;html=1;" vertex="1" parent="1">
          <mxGeometry x="205" y="240" width="110" height="50" as="geometry" />
        </mxCell>
        <mxCell id="4gRq2dZgkaTbH2mpH-9e-9" value="View Products" style="ellipse;whiteSpace=wrap;html=1;" vertex="1" parent="1">
          <mxGeometry x="345" y="300" width="130" height="50" as="geometry" />
        </mxCell>
        <mxCell id="4gRq2dZgkaTbH2mpH-9e-10" value="Add items to cart" style="ellipse;whiteSpace=wrap;html=1;" vertex="1" parent="1">
          <mxGeometry x="500" y="300" width="140" height="50" as="geometry" />
        </mxCell>
        <mxCell id="4gRq2dZgkaTbH2mpH-9e-12" value="" style="html=1;verticalAlign=bottom;endArrow=block;curved=0;rounded=0;exitX=0.5;exitY=0.5;exitDx=0;exitDy=0;exitPerimeter=0;" edge="1" parent="1" source="4gRq2dZgkaTbH2mpH-9e-1" target="4gRq2dZgkaTbH2mpH-9e-5">
          <mxGeometry width="80" relative="1" as="geometry">
            <mxPoint x="390" y="320" as="sourcePoint" />
            <mxPoint x="470" y="320" as="targetPoint" />
          </mxGeometry>
        </mxCell>
        <mxCell id="4gRq2dZgkaTbH2mpH-9e-13" value="View Cart" style="ellipse;whiteSpace=wrap;html=1;" vertex="1" parent="1">
          <mxGeometry x="341.25" y="380" width="137.5" height="50" as="geometry" />
        </mxCell>
        <mxCell id="4gRq2dZgkaTbH2mpH-9e-14" value="Checkout" style="ellipse;whiteSpace=wrap;html=1;" vertex="1" parent="1">
          <mxGeometry x="345" y="470" width="130" height="50" as="geometry" />
        </mxCell>
        <mxCell id="4gRq2dZgkaTbH2mpH-9e-15" value="Need to add more" style="ellipse;whiteSpace=wrap;html=1;" vertex="1" parent="1">
          <mxGeometry x="170" y="380" width="130" height="50" as="geometry" />
        </mxCell>
        <mxCell id="4gRq2dZgkaTbH2mpH-9e-16" value="" style="html=1;verticalAlign=bottom;endArrow=block;curved=0;rounded=0;exitX=0.5;exitY=0.5;exitDx=0;exitDy=0;exitPerimeter=0;entryX=0;entryY=0.5;entryDx=0;entryDy=0;" edge="1" parent="1" source="4gRq2dZgkaTbH2mpH-9e-1" target="4gRq2dZgkaTbH2mpH-9e-8">
          <mxGeometry width="80" relative="1" as="geometry">
            <mxPoint x="390" y="320" as="sourcePoint" />
            <mxPoint x="470" y="320" as="targetPoint" />
          </mxGeometry>
        </mxCell>
        <mxCell id="4gRq2dZgkaTbH2mpH-9e-17" value="" style="html=1;verticalAlign=bottom;endArrow=block;curved=0;rounded=0;exitX=0.5;exitY=0.5;exitDx=0;exitDy=0;exitPerimeter=0;" edge="1" parent="1" source="4gRq2dZgkaTbH2mpH-9e-2" target="4gRq2dZgkaTbH2mpH-9e-7">
          <mxGeometry width="80" relative="1" as="geometry">
            <mxPoint x="390" y="320" as="sourcePoint" />
            <mxPoint x="470" y="320" as="targetPoint" />
          </mxGeometry>
        </mxCell>
        <mxCell id="4gRq2dZgkaTbH2mpH-9e-18" value="Extends" style="html=1;verticalAlign=bottom;endArrow=block;curved=0;rounded=0;exitX=1;exitY=0.5;exitDx=0;exitDy=0;entryX=0;entryY=0.5;entryDx=0;entryDy=0;" edge="1" parent="1" source="4gRq2dZgkaTbH2mpH-9e-8" target="4gRq2dZgkaTbH2mpH-9e-7">
          <mxGeometry width="80" relative="1" as="geometry">
            <mxPoint x="390" y="320" as="sourcePoint" />
            <mxPoint x="470" y="320" as="targetPoint" />
          </mxGeometry>
        </mxCell>
        <mxCell id="4gRq2dZgkaTbH2mpH-9e-19" value="includes" style="html=1;verticalAlign=bottom;endArrow=block;curved=0;rounded=0;exitX=1;exitY=0.5;exitDx=0;exitDy=0;entryX=0;entryY=0.5;entryDx=0;entryDy=0;" edge="1" parent="1" source="4gRq2dZgkaTbH2mpH-9e-8" target="4gRq2dZgkaTbH2mpH-9e-9">
          <mxGeometry width="80" relative="1" as="geometry">
            <mxPoint x="390" y="320" as="sourcePoint" />
            <mxPoint x="470" y="320" as="targetPoint" />
          </mxGeometry>
        </mxCell>
        <mxCell id="4gRq2dZgkaTbH2mpH-9e-20" value="Extends" style="html=1;verticalAlign=bottom;endArrow=block;curved=0;rounded=0;exitX=1;exitY=0.5;exitDx=0;exitDy=0;" edge="1" parent="1" source="4gRq2dZgkaTbH2mpH-9e-9" target="4gRq2dZgkaTbH2mpH-9e-10">
          <mxGeometry width="80" relative="1" as="geometry">
            <mxPoint x="390" y="320" as="sourcePoint" />
            <mxPoint x="470" y="320" as="targetPoint" />
          </mxGeometry>
        </mxCell>
        <mxCell id="4gRq2dZgkaTbH2mpH-9e-21" value="Includes" style="html=1;verticalAlign=bottom;endArrow=block;curved=0;rounded=0;exitX=0.5;exitY=1;exitDx=0;exitDy=0;" edge="1" parent="1" source="4gRq2dZgkaTbH2mpH-9e-5" target="4gRq2dZgkaTbH2mpH-9e-8">
          <mxGeometry width="80" relative="1" as="geometry">
            <mxPoint x="390" y="320" as="sourcePoint" />
            <mxPoint x="470" y="320" as="targetPoint" />
          </mxGeometry>
        </mxCell>
        <mxCell id="4gRq2dZgkaTbH2mpH-9e-22" value="includes" style="html=1;verticalAlign=bottom;endArrow=block;curved=0;rounded=0;exitX=0.5;exitY=1;exitDx=0;exitDy=0;entryX=0.5;entryY=0;entryDx=0;entryDy=0;" edge="1" parent="1" source="4gRq2dZgkaTbH2mpH-9e-7" target="4gRq2dZgkaTbH2mpH-9e-9">
          <mxGeometry width="80" relative="1" as="geometry">
            <mxPoint x="390" y="320" as="sourcePoint" />
            <mxPoint x="470" y="320" as="targetPoint" />
          </mxGeometry>
        </mxCell>
        <mxCell id="4gRq2dZgkaTbH2mpH-9e-23" value="Includes" style="html=1;verticalAlign=bottom;endArrow=block;curved=0;rounded=0;exitX=0.5;exitY=1;exitDx=0;exitDy=0;" edge="1" parent="1" source="4gRq2dZgkaTbH2mpH-9e-9" target="4gRq2dZgkaTbH2mpH-9e-13">
          <mxGeometry width="80" relative="1" as="geometry">
            <mxPoint x="390" y="320" as="sourcePoint" />
            <mxPoint x="470" y="320" as="targetPoint" />
          </mxGeometry>
        </mxCell>
        <mxCell id="4gRq2dZgkaTbH2mpH-9e-24" value="Extends" style="html=1;verticalAlign=bottom;endArrow=block;curved=0;rounded=0;exitX=0.5;exitY=1;exitDx=0;exitDy=0;" edge="1" parent="1" source="4gRq2dZgkaTbH2mpH-9e-13" target="4gRq2dZgkaTbH2mpH-9e-14">
          <mxGeometry width="80" relative="1" as="geometry">
            <mxPoint x="390" y="320" as="sourcePoint" />
            <mxPoint x="470" y="320" as="targetPoint" />
          </mxGeometry>
        </mxCell>
        <mxCell id="4gRq2dZgkaTbH2mpH-9e-25" value="Extends" style="html=1;verticalAlign=bottom;endArrow=block;curved=0;rounded=0;exitX=0;exitY=0.5;exitDx=0;exitDy=0;entryX=1;entryY=0.5;entryDx=0;entryDy=0;" edge="1" parent="1" source="4gRq2dZgkaTbH2mpH-9e-13" target="4gRq2dZgkaTbH2mpH-9e-15">
          <mxGeometry width="80" relative="1" as="geometry">
            <mxPoint x="390" y="320" as="sourcePoint" />
            <mxPoint x="470" y="320" as="targetPoint" />
          </mxGeometry>
        </mxCell>
        <mxCell id="4gRq2dZgkaTbH2mpH-9e-26" value="Includes" style="html=1;verticalAlign=bottom;endArrow=block;curved=0;rounded=0;exitX=0.5;exitY=0;exitDx=0;exitDy=0;entryX=0;entryY=0.5;entryDx=0;entryDy=0;" edge="1" parent="1" source="4gRq2dZgkaTbH2mpH-9e-15" target="4gRq2dZgkaTbH2mpH-9e-9">
          <mxGeometry width="80" relative="1" as="geometry">
            <mxPoint x="390" y="320" as="sourcePoint" />
            <mxPoint x="470" y="320" as="targetPoint" />
          </mxGeometry>
        </mxCell>
      </root>
    </mxGraphModel>
  </diagram>
</mxfile>
